<svg xmlns="http://www.w3.org/2000/svg" viewBox="0 0 512 512" role="img" aria-labelledby="title description">
  <title id="title">Cheesewiththat favicon</title>
  <desc id="description">A simplified black serif M with a yellow cheese wedge on cream.</desc>
  <rect width="512" height="512" rx="84" fill="#f8f2e5" />
  <path
    fill="#111111"
    d="M56 82h128l72 180 72-180h128v30c-25 4-37 22-37 49v195c0 28 13 44 37 48v26H290v-26c25-4 38-20 38-48V202l-57 146h-34l-63-146v154c0 28 14 44 39 48v26H56v-26c25-4 38-20 38-48V161c0-27-13-45-38-49V82Z"
  />
  <path
    fill="#f2b521"
    d="M279 430c8-75 39-130 91-161-1-25 14-45 39-48 26-3 47 17 47 44v165H279Z"
  />
  <circle cx="393" cy="326" r="25" fill="#f8f2e5" />
</svg>
